<svg width="5051" height="4000" fill="none" xmlns="http://www.w3.org/2000/svg"><g opacity=".48"><path d="m2525.1 1551.3 583.15-987.597h1941.96L2993.8 4000h-930.57L0 563.703h1941.96L2525.1 1551.3z" fill="url(#a)"/><path d="M3108.26 563.703 2525.12 1551.3l-583.15-987.597h-931.92L2525.12 3129.53 4040.17 563.703h-931.91z" fill="url(#b)"/><path d="M3108.26 563.703 2525.12 1551.3l-583.15-987.597h-931.92L2525.12 3129.53 4040.17 563.703h-931.91z" fill="url(#c)"/></g><path d="M3069.77 0 2525.1 922.425 1980.45 0H166.633L2525.1 3994.27 4883.58 0H3069.77z" fill="url(#d)"/><path d="m3069.75 0-544.66 922.426L1980.43 0H1110l1415.09 2396.52L3940.18 0h-870.43z" fill="#34495E"/><defs><linearGradient id="a" x1="2525.11" y1="563.703" x2="2525.11" y2="4000" gradientUnits="userSpaceOnUse"><stop stop-color="#D9D9D9" stop-opacity=".16"/><stop offset=".307" stop-color="#D9D9D9" stop-opacity=".06"/><stop offset=".625" stop-color="#D9D9D9" stop-opacity="0"/><stop offset="1" stop-color="#fff" stop-opacity="0"/></linearGradient><linearGradient id="b" x1="1010.05" y1="1945.3" x2="4040.63" y2="1928.31" gradientUnits="userSpaceOnUse"><stop stop-color="#F926E1"/><stop offset="1" stop-color="#2AB5FB"/></linearGradient><linearGradient id="c" x1="2525.12" y1="3129.53" x2="2525.12" y2="563.703" gradientUnits="userSpaceOnUse"><stop/><stop offset="1" stop-opacity=".25"/></linearGradient><linearGradient id="d" x1="166.633" y1="2150.76" x2="4884.3" y2="2124.31" gradientUnits="userSpaceOnUse"><stop stop-color="#F926E1"/><stop offset="1" stop-color="#2AB5FB"/></linearGradient></defs></svg>